<?xml version="1.0" encoding="UTF-8"?>
<svg width="520px" height="720px" viewBox="0 0 520 720" version="1.1" xmlns="http://www.w3.org/2000/svg" xmlns:xlink="http://www.w3.org/1999/xlink" xmlns:sketch="http://www.bohemiancoding.com/sketch/ns">
    <!-- Generator: Sketch 3.3.3 (12072) - http://www.bohemiancoding.com/sketch -->
    <title>Slice 1</title>
    <desc>Created with Sketch.</desc>
    <defs></defs>
    <g id="Page-1" stroke="none" stroke-width="1" fill="none" fill-rule="evenodd" sketch:type="MSPage">
        <rect id="Rectangle-3" fill="#FF4600" sketch:type="MSShapeGroup" x="0" y="0" width="520" height="720"></rect>
        <g id="logo" sketch:type="MSLayerGroup" transform="translate(41.000000, 40.000000)">
            <g id="Black" fill="#000000" sketch:type="MSShapeGroup">
                <path d="M208.4,125.43 C214.74,124.55 224.29,128.89 224.93,135.8 C219.48,138.99 210.54,142.37 205.39,136.69 C202.64,135.12 197.95,133.9 198.05,130.18 C201.25,128.12 204.97,127.06 208.4,125.43 L208.4,125.43 Z" id="Shape"></path>
                <path d="M203.21,221.19 C203.59,221.13 204.35,221.01 204.73,220.95 C203.5,226.38 211.21,230.48 207.68,235.5 C208.9,243.49 202.43,248.54 201.23,255.91 C201.63,256.17 202.44,256.68 202.84,256.94 C208.55,251.27 210.09,242.88 212.73,235.57 C214.78,232.97 212.16,229.78 212.03,226.9 C214.76,227.31 217.16,228.84 219.86,229.45 C223.01,234.94 212.91,237.86 217.27,242.75 C220.76,244.16 227.31,243.42 228.03,239.21 C224.79,239.59 223.11,238.3 224.02,234.96 C226.65,235.79 229.21,236.85 231.96,237.32 C231.64,239.45 228.25,243.46 232,243.92 C235.74,243.76 234.34,239.46 236.72,237.72 C238.56,236.04 241.01,235.28 243.16,234.09 C243.44,237.44 239.65,239.5 240.12,242.75 C242.35,244.17 245.24,247.57 247.86,244.98 C244.48,241.59 246.72,234.92 252.19,236.18 C252.38,229.35 260.08,231.13 264.84,229.08 C267.84,235.41 256.48,238.94 252.96,243.93 C249.85,249.92 241.98,249.06 237.78,253.76 C234.37,256.63 229.2,254.72 226.14,258.12 C223.68,260.4 218.53,260.27 217.91,264 C230.58,265.15 239.61,254.81 251.08,252.02 C255.56,246.79 262.74,244.42 266.76,238.81 C268.16,234.02 271.56,229.71 276.59,228.52 C276.48,226.36 276.54,221.51 279.98,221.87 C282.67,232.55 272.93,238.93 268.09,247.06 C264.63,254.29 256.34,256.55 250.94,261.94 C231,273.71 207.49,273.88 185,272.21 C182.06,270.7 172.27,276.46 174.08,270.15 C185.87,266.29 195.55,256.98 198.71,244.69 C205.66,238.94 197.65,228.1 203.21,221.19 L203.21,221.19 Z" id="Shape"></path>
                <path d="M400.32,411.33 C408.03,412.21 415.18,418.02 421.26,422.74 C437.16,435.5 435.48,457.12 436.59,475.39 C434.18,494.3 432.77,514.96 420.6,530.53 C412.84,544.29 396.72,548.75 382.12,550.34 C355.24,552.28 328.09,553.68 301.07,555.21 C276.94,560.22 252.13,561.95 228.61,569.5 C208.84,574.1 188.39,576.68 169.62,584.51 C154.95,587.05 141.56,594.12 126.99,597.08 C115.52,604.81 100.96,606.1 88.79,612.79 C70.54,619.28 53.1,628.23 35.27,636.21 C29.51,638.35 24.54,642.98 18.17,642.95 C6.68,619.53 -3.44,592.99 2.66,566.54 C11.56,542.5 25.75,520.06 45.1,503.07 C48.46,502.18 45.65,508.4 49.92,507.19 C55.53,511.45 58.26,519.38 64.45,523.49 C63.09,533.9 73.95,535.09 79.64,540.3 C76.89,546.77 83.74,545.02 85.02,548.99 C87.91,551.59 84.8,558.47 89.85,558.18 C93.44,565.98 101.22,574.89 98.09,584.81 C102.5,586.93 105.12,589.61 105.13,594.9 C107.38,603.4 125.13,600.7 119.96,590.89 C127.16,596.35 137.13,585.79 134.07,578.21 C141.05,576.78 138.58,567.57 145.82,566.66 C142.14,559.63 147.78,552.13 150.46,545.45 C152.12,541.65 158.11,547.33 154.09,549.1 C155.31,554.3 160.92,549.42 163.82,552.17 C165.64,554.25 168.98,548.67 169.17,552.84 C170.04,557.03 175.67,554.54 178.82,555.46 C183.02,548.75 192.49,550.97 197.18,545.19 C200.02,543.33 202.54,537.29 206.02,540.93 C210.42,534.29 219.17,535.59 225.08,531.11 C230.59,529.54 222.09,537.85 227.36,536.45 C233.11,536.18 232.15,527.89 237.8,527.71 C246.44,519.45 258.62,514.35 268.92,507.91 C284.08,495.75 303.17,490.01 321.95,487 C326.66,490.74 333.12,487.48 337.06,492.05 C336.74,483.58 325.2,485.67 320.84,480.06 C312.74,483.18 303.75,485.2 295.51,489.3 C288.53,487.5 287.15,496.57 280.38,495.48 C274.16,496.6 266.14,504.24 259.92,499.15 C255.61,499.99 254.91,504.97 250.81,505.83 C241.97,507.2 237.28,519.23 227.22,516.47 C227.66,522.56 219.35,521.48 216.87,526.02 C212.56,521.96 210.82,528 206.15,528.27 C191.57,539.66 172.29,537.77 154.87,538.95 C158.38,534.12 160.29,527.7 166,524.95 C168.32,517.48 173.25,511.4 178.49,505.58 C178.02,500.02 187.6,503.31 185.89,497.13 C181.07,491.97 188.88,490 191.38,486.46 C196.98,486.46 197.73,479.31 202.08,477.49 C208.12,478.47 215.75,472.54 214.2,466.13 C216.48,464.93 219.31,464.85 219.85,461.79 C226.96,457.94 233.55,449.43 242.8,450.52 C243.3,448.84 243.7,447.13 244.2,445.46 C249.18,447.29 252.99,443.4 256.1,440.15 C261.64,441.75 267.33,439.03 272.86,440.8 C279.96,435.16 289.8,436.74 298.36,436.48 C303.88,440.12 302.65,435.39 303.22,432.97 C314.31,438.13 326.23,430.65 337.81,432.42 C345.4,427.15 354.95,428.22 363.11,424.21 C367.94,424.91 372.74,423.3 377.11,421.3 C380.7,422.62 382.91,419.76 385.36,417.53 C390.55,415.98 395.23,413.16 400.32,411.33 Z M50.31,554.31 C56.92,553.93 63.77,554.79 69.15,558.79 C70.93,567.25 81.83,561.74 86.45,567.49 C91.84,570.19 88.14,578.72 83.42,580.26 C75.62,578.36 75.82,590.76 67.99,587.97 C61.17,589.19 54.22,591.21 47.29,588.75 C43.93,584.82 41.13,580.64 39.05,575.95 C36.91,567.04 43.17,559 50.31,554.31 Z M383.37,467.44 C390.23,466.89 401.2,468.05 402.59,476.57 C411.3,485.65 402.78,501.61 391.62,503.6 C385.31,506.84 380.31,501.78 374.21,501.78 C366.91,490.18 369.84,472.92 383.37,467.44 Z M338.09,493.93 C343.29,498.78 338.5,508.98 332.24,511.23 C327.38,514.5 315.82,516.46 315.96,507.94 C322.13,510.61 329.64,512.77 334.09,505.08 C336.56,501.82 335.99,497.37 338.09,493.93 Z" id="Shape"></path>
                <path d="M309.96,85.9 C311.9,87.16 316.07,90.21 312.37,91.96 C311.62,89.92 310.65,87.96 309.96,85.9 L309.96,85.9 Z" id="Shape"></path>
                <path d="M271.4,10.51 C284.84,9.18 298.25,12.01 311.71,12.39 C328.42,11.94 345.16,13.38 361.91,13.24 C367.43,13.08 374.09,15.57 378.94,11.89 C381.33,16 377.65,19.04 378.02,23.04 C377.19,26.57 383.04,25.68 383.13,28.91 C385.24,36.52 384.92,45.11 390.57,51.33 C391.63,54.98 396.28,50.17 397.72,53.21 C397.49,55.47 397.23,57.74 397.34,60.01 C402.5,64.46 402.07,55.12 405.22,56.81 C408.58,60.72 414.28,53.05 416.55,57.38 C415.92,63.28 420.95,66.8 423.56,71.4 C425.33,94.59 427.31,117.88 424.84,140.81 C422.94,162.81 424.6,185.91 422.75,207.87 C419.06,207.89 411.68,207.94 407.99,207.97 C406.2,196.22 413.2,185.71 411.99,174.01 C411.58,161.76 413.55,149.53 412.7,137.3 C410.29,129.55 413.38,121.79 412.7,113.92 C411.33,98.9 411.24,83.72 408.24,68.87 C406.78,64.38 414.02,64.07 414.08,59.99 C405.35,59.83 397.77,65.57 389.08,64.95 C381.03,61.03 377.51,50.01 382.43,42.36 C384.94,38.78 379.56,36.16 377.69,39.69 C371.19,48.8 378.68,59.36 383.45,67.46 C382.9,75.17 388.5,79.84 387.37,87.65 C391.68,92.28 391.41,98.78 390.91,104.75 C385.06,103.3 385.32,112.35 390.88,109.13 C389.86,112.64 391.95,115.68 392.69,118.99 C392.01,128.08 390.8,137.15 388.07,145.82 C389.01,148.1 393.02,144.71 391.88,148 C392.98,153.76 386.68,155.95 389.93,162.03 C390.46,169.63 382.95,176.77 386.75,183.92 C387.89,189.93 384.96,195.12 384.89,200.99 C380.44,200.02 374.62,196.54 376.95,191.02 C378.11,177.22 382.57,163.97 382.15,150.01 C384.27,137.19 379.59,123.76 383.75,111.26 C381.42,109.13 379.54,105.6 383.88,104.55 C378.69,102.13 379.83,96.05 379.17,91.26 C381.53,89.14 384.94,87.62 385.11,83.98 C382.28,83.61 379.85,85.12 377.34,86.1 C378.27,83.82 377.37,81.79 376.13,79.86 C376,76.03 378.07,72.54 379.04,68.91 C374.11,73.35 370.02,67.67 370.28,62.29 C363.36,53.02 361.95,39.72 351.95,33.08 C346.9,27.38 342.53,18.43 333.93,18.04 C334.42,25.75 345.62,26.11 346.49,33.64 C352.32,41.43 358.93,48.92 361.71,58.45 C363.28,62.33 368.12,69.01 358.98,67.26 C358.55,71.42 363.78,74.86 366.86,71.21 C369.15,78.75 373.92,86.24 370.01,93.87 C380.57,94.98 361.84,103.64 370.79,106.08 C369.98,102.99 372.57,100.07 374.77,103.31 C377.17,121.01 376,138.83 375.58,156.62 C377.03,170.31 371.28,183.31 371.83,197.13 C367.62,195.73 363.45,193.4 358.91,194.95 C364.86,181.81 363.92,166.75 367.72,153.1 C367.28,138.51 367.59,123.87 368.34,109.26 C364.94,102.6 369.28,94.07 362.9,89.09 C365.05,88.69 371.23,86.37 367.6,84.49 C356.88,87.21 369.71,77.29 363.06,76.32 C356.44,78.08 357.92,68.38 355.47,64.56 C350.75,61.17 350.41,54.66 346.39,50.63 C339.82,38.77 330.74,26.62 317.54,21.54 C314.75,20.05 312.92,20.47 312.04,22.79 C316.98,26.17 322.78,28.65 326.38,33.63 C338.46,42.7 342.61,56.94 350.45,69.64 C356.55,74.84 354.45,83.97 358.72,90.21 C367.18,124.94 359.58,160.09 355.89,194.86 C352.14,195.53 345.59,195.72 344,191.95 C351.8,163.82 356.67,133.78 353.02,103.99 C350.05,93.68 349.75,82.27 342.37,73.67 C345.48,66.85 338.04,66.29 336.62,60.52 C332.65,49.98 323.8,42.73 315.61,35.49 C310.66,34.27 307.43,30.55 304.25,26.89 C297.65,26.2 292.97,20.42 286.85,18.25 C281.5,17.89 276.19,17.68 270.88,17.13 C274.1,23 283.4,23.35 289.65,24.35 C300.79,29.17 308.84,38.5 318.54,45.46 C329.3,53.53 331.7,66.93 339.89,76.88 C335.61,80.37 343.08,80.54 342.86,85.18 C342.41,91.22 346.36,95.7 346.42,101.68 C349.12,109.1 345.72,117.28 349.63,124.32 C349.12,134.06 350.66,144.44 346.82,153.79 C341.75,166.91 346.36,182.42 339.81,194.93 C336.31,194.64 329.68,193.07 332.07,187.97 C335.19,174.54 338.03,160.89 338.79,147.11 C336.62,139.32 341.02,132 340.65,124.31 C338.35,104.47 336.72,82.85 323.02,67.03 C322.52,59.8 312.48,57.49 315.98,50.13 C299.32,43.89 285.29,26.43 265.69,28.4 C260.46,28.17 261.6,15.99 267.94,17.72 C267.06,13.99 265.93,9.65 271.4,10.51 Z M369.01,18.89 C373.66,20.32 376.42,25 379.71,28.29 C381.89,33.53 374.18,30.07 373.93,27.06 C372.48,24.13 367.72,22.83 369.01,18.89 Z M353.89,19.97 C362.23,22.77 369.24,29.78 372.95,37.92 C372.01,38.84 370.68,39.22 369.42,38.82 C366.21,31.09 357.17,27.78 353.89,19.97 Z" id="Shape"></path>
                <path d="M297.89,70.03 C303.96,67.94 306.92,74.47 306.82,79.21 C303.55,76.88 298.51,74.35 297.89,70.03 L297.89,70.03 Z" id="Shape"></path>
                <path d="M235.41,69.56 C243.59,68.86 252.81,71.31 258.95,77.06 C259.59,67.98 268.59,74.33 273.66,76.4 C291.86,85.94 308.03,102.31 307.92,123.98 C305.38,139.04 305.67,154.55 299.74,168.87 C297.71,179.35 288.64,186.31 282.48,194.47 C271.31,197.57 263.67,208.9 252.15,210.01 C242.89,212.61 233.58,217.25 223.77,215.23 C213.84,208.88 202.13,203.25 197.2,191.75 C189.02,182.15 184.6,169.58 182.58,157.2 C176.6,138.41 176.48,117.49 182.9,98.8 C187.6,93.4 190.6,86.83 195.52,81.64 C196.57,74.13 206.59,71.85 212.91,71.36 C220.48,72.37 227.89,70.06 235.41,69.56 Z M236.22,194.54 C241.8,194.67 247.49,194.88 252.95,196.23 C253.18,197.68 252.92,200.13 250.94,199.92 C244.95,199.47 238.95,198.96 233.07,197.8 C232.22,195.25 234,194.54 236.22,194.54 Z M229.2,201.05 C232.46,200.59 232.16,203.64 229.75,204.75 C226.97,206.36 227.74,202 229.2,201.05 Z M268.32,124.71 C276.85,126.49 290.57,130.04 288.89,141.77 C280.22,148.74 266.92,149.88 257.33,144.65 C253.37,142.65 254.85,135.9 259.68,138.31 C266.18,146.64 277.73,143.27 285.99,139.84 C280.53,130.08 264.28,128.41 255.08,134.82 C252.33,128.34 263.72,126.02 268.32,124.71 Z M265.41,108.57 C273.08,106.68 280.36,110.63 287.6,112.55 C290.54,113.65 295.3,116.25 292.84,119.93 C286.97,120.01 283.3,112.73 276.99,114.14 C269.56,114.23 261.56,111.21 254.87,115.82 C250.63,116.64 252.83,111.45 253.22,109.23 C257.28,110.23 261.35,109.13 265.41,108.57 Z M297.04,114.09 C300.22,115.47 307.15,111.59 303.96,118.91 C300.79,117.53 293.82,121.4 297.04,114.09 Z M204.43,121.39 C211.83,119.11 219.74,121.85 224.88,127.12 C227.56,131.48 229.81,139.58 222.9,140.88 C216.71,146.27 207.61,143.68 200.26,141.74 C197.8,139.07 196.87,135.19 193.17,133.65 C190.9,126.4 200.59,125.63 204.43,121.39 Z M277.25,84.19 C282.33,82.77 284.09,92.6 280.04,95.04 C277.91,99.38 276.58,93.65 277.4,91.31 C278.59,88.85 274.37,85.77 277.25,84.19 Z M251.99,80.88 C260.05,80.43 253.3,92.49 260.33,91.45 C264.82,89.48 261.21,95.6 262.85,98.03 C259.36,100.26 257.23,92.48 255.46,96.36 C259.91,103.13 248.18,101.65 251.83,97.81 C255.61,92.71 251.89,86.47 251.99,80.88 Z M222.33,102.42 C224.04,101.57 224.58,103.68 225.56,104.62 C229.53,107.1 237.68,100.57 236.55,109.38 C244.26,115.23 242.59,127.24 242.56,136.33 C241.79,148.92 240.65,161.69 237.06,173.79 C243.03,177.95 252.99,174.06 258.01,176.01 C253.94,182.29 237.73,182.06 234.32,174.69 C235.92,155.43 242.27,135.78 237.76,116.27 C233.26,114.3 229.51,107.06 224.44,110.34 C215.79,104.9 205.19,110.36 195.94,111 C200.48,102.66 214.09,105.33 222.33,102.42 Z" id="Shape"></path>
                <path d="M396.35,68.51 C397.82,68.33 399.3,68.22 400.79,68.2 C409.85,83.24 404.36,101.64 407.95,118.02 C404.68,130.96 409.5,144.3 406.6,157.41 C406.31,167.14 402.73,177.66 406.68,187 C406.94,193.78 403.77,200.29 404.96,207.06 C400.04,206.52 395.04,204.82 391.09,201.76 C388.81,195.4 393.75,190.99 395.51,185.68 C397.54,149.22 403.2,111.1 390.67,76.21 C389.61,74.11 388.25,72.18 387.12,70.13 C390.18,69.47 393.23,68.98 396.35,68.51 L396.35,68.51 Z" id="Shape"></path>
                <path d="M276.99,51.99 C284.15,49.62 288.1,56.8 291.42,61.49 C295.22,62.26 296.5,65.7 296.8,69.17 C291.85,67.16 288.32,61.99 283.13,59.79 C280.35,57.78 275.63,56.38 276.99,51.99 L276.99,51.99 Z" id="Shape"></path>
                <path d="M262.96,32 C271.21,30.41 277.85,36.24 285.62,37.49 C292.88,41.94 299.14,47.82 305.35,53.65 C308.26,56.55 313.52,57.69 313.41,62.67 C315.48,64.59 318.4,65.92 319.26,68.84 C324.16,82.88 333.6,95.56 333.92,111 C334.04,133.17 334,155.54 329.34,177.33 C327.44,182.72 329.31,188.45 328.97,194.01 C322.89,192.88 317,194.39 310.96,194.82 C310.45,192.33 312.66,189.59 315.27,190.48 C318.31,190.2 316.52,185.7 317.31,183.38 C324.34,181.47 321.91,170.91 324.01,167.1 C332.33,167.09 318.67,161.92 324.03,159.1 C329.07,158.75 322.18,154.14 324.67,151.69 C328.19,147.61 324.81,142.4 328.32,138.32 C331.22,135.06 323.24,128.61 329.99,128.7 C330.37,126.06 326.75,123.98 328.38,121.39 C333.83,116.32 326.91,108.56 329.58,102.37 C325.99,99.9 328.31,97.45 329,94.27 C323.58,95.16 325.27,87.12 319.39,87.55 C314.12,69.12 298.01,56.58 281.14,48.83 C274.86,48.04 285.68,36.64 274.99,41.09 C269.38,42.9 261.88,38.45 262.96,32 L262.96,32 Z" id="Shape"></path>
                <path d="M58.41,0.58 C82.97,0.65 107.41,2.78 131.9,3.71 C139.96,2 148.18,8.68 156.04,5.37 C164.48,7.84 173.04,7.4 181.62,6.53 C199.65,8.52 217.83,5.77 235.69,9.55 C242.13,6.3 245.25,13.72 248.74,15.81 C250.76,10.46 256.03,10.5 261,11.06 C258.13,20.57 258.45,30.05 257.89,39.85 C255.11,38.74 252.59,39.59 250.19,41.13 C250.64,34 247.16,26.96 248.88,19.93 C242.11,19.37 243.96,28.2 244.46,32.4 C243.14,37.84 248.31,41.74 247.89,46.79 C243.23,49.26 239.24,56.35 233.66,52.56 C229.26,53.53 224.84,49.9 220.8,52.6 C214.32,54.24 211.34,64.2 204.36,62.14 C203.37,65.51 202.12,70.93 197,69.06 C187.89,69.72 183.78,79.2 178.74,85.89 C176.87,85.8 175.08,85.22 173.24,85.05 C174.96,91.02 167.65,91.86 166.57,96.6 C162.38,95.11 158.99,99.96 155.31,97.05 C154.15,102.51 152.06,107.84 149.84,112.86 C146.3,115.61 146.85,122.49 151.97,122.39 C148.92,124.65 145,131.87 151.99,129.32 C149.05,135.38 160.42,138.97 154.98,145.01 C151.15,148.26 161.25,149.11 156.38,153.64 C155.53,161.5 166.31,163.71 162.13,171.88 C169.54,172.34 160.75,177.46 163.01,181.93 C167.63,179.87 171.09,184.53 169.17,188.76 C174.12,192.2 176.98,198.34 183.84,196.96 C179.22,202.48 186.81,207.89 184.08,213.82 C185.61,213.16 188.67,211.84 190.2,211.18 C189.57,212.76 188.2,214.09 188.07,215.83 C190.78,218.76 195.32,215.92 197.91,219.2 C198.54,234.18 195.91,251.27 182.74,260.72 C174.63,266.42 165.27,270.18 156.2,274.12 C137.8,276.89 116.85,278.03 102.78,291.94 C108.19,292.52 112.72,289.32 117.42,287.3 C129.56,279.69 144.49,280.53 157.99,277.04 C173.91,274.39 190.05,275.91 205.98,277.1 C221.1,280.06 235.65,273.27 249.46,268.37 C258.76,257.71 275.88,253.36 279.44,238.33 C282.95,234.74 286.96,231.42 288.38,226.36 C290,223.19 290.07,227.72 291.1,229.04 C294.86,227.85 291.36,222.29 294.08,220.05 C296.33,218.39 296.2,213.73 299.93,215.03 C304.53,215.59 297.66,220.41 301.25,221.82 C304.86,222.71 307.66,219.4 310.84,218.23 C313.32,220.48 314.19,225.19 317.61,225.89 C318.14,223.69 319.25,220.83 322.02,221.03 C327.49,221.37 319.18,214.4 324.06,214.1 C332.12,215.51 339.67,212.76 347.84,213.77 C353.92,209.41 360.42,215.83 366.69,212.7 C371.01,210.22 374.56,213.45 378.55,214.29 C376.62,220.08 389.3,213.66 387.29,221.77 C391.89,219.82 396.56,224.53 399.69,220.1 C399.41,225.47 405.38,224.17 406.07,228.84 C407.71,227.83 410.29,225.74 411.6,228.36 C413.48,232.14 416.93,228.58 419.02,226.97 C423.66,228.69 418.53,235.34 421.08,238.9 C422.73,268.44 420.78,298.2 419.78,327.9 C417.88,345.67 418.15,364.31 411.06,381.01 C408.82,387.52 408.15,394.79 404.78,400.8 C395.68,407.19 385.4,411.28 374.23,412.35 C351.71,422.66 325.27,419.7 301.64,425.57 C291.56,422.18 282.29,427.2 272.54,428.18 C264.22,427.59 255.83,429.16 248.63,433.54 C233.12,438.5 219.96,448.46 207.95,458.95 C199.94,463.07 195.08,468.66 188.5,474.41 C184.59,484.66 173.35,489.63 167.83,498.88 C156.95,512.63 146.35,526.71 140.18,543.21 C131.22,557 127.29,573.04 120.84,587.97 C120.19,587.94 118.89,587.9 118.23,587.87 C115.58,579.94 109.71,572.81 109.28,564.32 C113.68,558.36 117.87,552.17 119.95,544.98 C137.32,513.27 156.53,480.72 186.61,459.48 C197.34,450.56 209.52,443.8 221.15,436.25 C226.9,433.63 235.88,432.42 238.11,426.01 C224.71,427.49 212.54,434.93 201.42,442.46 C184.39,454.21 167.24,466.86 154.98,483.96 C151.12,491.57 143.34,495.97 139.52,503.54 C128.6,515.88 123.37,531.69 114.15,545.17 C111.67,550.03 111.88,558.85 105.26,559.86 C101.95,555.07 98.29,550.4 96.01,545.04 C99.52,541.85 103.28,538.47 104.83,533.87 C113.92,516.12 126.82,500.49 135.71,482.63 C128.08,487.67 124.22,496.62 118.54,503.52 C109.05,510.27 108.67,523.27 99.71,530.71 C96.55,533.46 99.44,543.53 93.31,542.77 C87.46,534.08 81.79,525.1 73.32,518.7 C71.59,513.97 63.17,513.58 64.18,508.31 C71,505.45 77.7,498.75 78.78,491.76 C82.73,488.36 87.16,483.46 92.85,485.98 C92.22,476.75 103.34,472.47 102.22,463.13 C107.54,454.81 117.56,450.07 122.26,441.26 C135.18,433.08 145.79,422.11 159.62,415.48 C169.51,407.14 182.12,404.47 192.87,397.81 C203.81,391.94 217.08,389.37 225.03,379.15 C215.34,376.16 208.49,386.44 199.4,388.5 C189.54,395.28 178.01,399.1 167.57,404.56 C165.19,407.17 162.14,409.49 158.37,409.41 C154.3,414.92 147.47,417.22 141.82,420.86 C123.19,433.94 106.6,450.84 90.19,466.19 C87.83,478.67 74.74,486.49 68.46,497.56 C66.82,500.8 64.94,503.91 62.69,506.78 C58.54,507.34 55.85,502.12 52.26,500.68 C50.47,496.62 56.16,495.07 56.37,491.34 C57.37,484.71 64.19,481.77 67.15,476.19 C83.71,451.12 108.17,432.75 130.16,413.12 C131.75,409.65 136.17,408.98 139.49,408.56 C141.2,405.15 144.14,402.66 147.86,401.77 C173.02,387.32 197.23,370.16 225.69,362.69 C229.53,359.73 231.5,366.34 235.34,364.47 C246.8,362.24 246.02,380.24 255.01,382.06 C254.65,372.61 245.21,367.09 244,358.26 C251.52,358.65 248.47,348.45 252.29,344.28 C257.37,340.23 261.56,333.4 258.13,327.4 C262.66,327.22 262.44,322.34 263.03,319.02 C260.41,319.54 257.86,320.39 255.25,320.92 C255.39,316.32 248.97,311.39 244.99,314.92 C241.23,309.2 232.81,313.37 227.6,315.57 C225.1,320.8 219.17,322.08 214.44,324.45 C210.79,327.98 205.9,333.49 208.1,338.83 C212.53,345.25 204.88,346.88 202.78,350.74 C197.93,350.36 200.51,358.7 194.31,356.41 C191.08,358.17 191.6,364.18 186.13,362.28 C182.38,364.66 176.95,367.91 172.96,364.04 C170.55,366.57 168.64,370.54 164.14,369.28 C161.51,369.86 158.49,374.96 155.99,372.07 C154.41,365.38 147.98,373.68 147.07,376.85 C151.73,379.97 142.16,381.73 139.69,380.29 C131.02,374.76 135.72,397.41 126.66,391.49 C120.23,389.45 122.15,397.87 116.28,397.43 C114.91,406.43 101.83,402.04 102.6,410.59 C97.05,409.29 96.97,415.46 94.29,418.27 C92.59,421.83 88.5,423.23 86.82,426.76 C86.03,431.44 81.34,433.84 78.39,436.93 C78.8,432.25 72.67,431.98 74.27,436.88 C75.98,440.23 73.1,441.5 70.26,440.2 C70.23,443.42 68.71,447.04 64.07,445.34 C64.33,448.99 66.05,453.8 61.59,455.54 C55.11,457.68 51.21,463.37 49.75,469.72 C46.34,467.38 42.3,470.14 39.9,466.04 C35.25,464.88 35.84,475.93 42.08,471.21 C41.5,473.34 41.48,478.6 38.41,477.69 C36.56,473.9 33.12,470.93 32.4,466.63 C25.14,420.17 33.03,373.31 32.54,326.62 C31.69,303.76 32.43,280.71 38.51,258.48 C42.06,256.01 42.89,251.76 44.27,247.94 C46.17,248.94 45.9,251.17 46.27,252.99 C52.16,253.5 54.27,244.5 60.26,246.39 C66.42,244.33 72.83,242.9 79.66,243.8 C79.41,238.05 83.45,244.64 85.87,242 C80.39,235.13 94.35,232.84 96.68,227.69 C103.74,219.71 104.86,208.44 104.72,198.28 C98.45,189.53 90.64,178.51 77.99,181.97 C73.78,184.18 68.54,185.22 67.67,190.7 C62.89,193.02 69.19,201.68 70.75,195.87 C73.69,183.29 91.91,186.55 95.91,196.06 C98.76,204.08 101.84,214.47 95.6,221.68 C90.32,230.54 75.92,236.8 67.58,228.48 C60.08,231 56.27,222.14 48.4,224.53 C41.69,222.59 43.4,214.9 39.86,210.2 C31.31,166.25 38.34,121.37 38.94,76.97 C39.38,69.04 41,61.46 44.45,54.21 C50.98,48.46 50.32,62.89 54.13,57.16 C55.66,53.61 59.5,56.45 62.3,55.55 C70.41,57.82 79.71,58.37 88.34,60.6 C107.47,61.43 116.56,32 100.36,21.59 C96.85,21.4 91.66,20.86 89.19,24.23 C86.9,31.07 99.02,23.3 99.88,29.11 C104.64,34.82 105.3,43.31 100,49 C95.25,57.12 84.72,53.72 77.74,51.22 C71.86,41.14 60.6,35.7 53.46,26.57 C46.65,20.76 42.39,11.5 47.99,3 C49.39,-1.05 55.13,1.77 58.41,0.58 Z M347.33,282.35 C366.76,281.45 381.74,302.89 378.85,321.02 C377.63,332.76 373.43,345.81 364.18,353.16 C359.28,365.95 345.99,371.15 335.61,378.57 C312.98,384.66 291.62,394.96 268.93,401.05 C269.63,395.21 277.52,397.33 281.14,394.21 C292.11,386.85 305.71,386.68 317.55,381.45 C321.84,377.48 328.27,377.23 333.14,374.07 C348.25,365.35 364.66,354.72 370.59,337.45 C373.56,332.2 372.17,325.85 374.29,320.32 C376.42,309.72 371.71,298.96 363.7,292.28 C357.43,283.81 342.75,283.84 336.19,292.19 C327.6,298.24 325.66,315.13 336.73,319.38 C338.86,324.92 329.59,321.96 328.01,318.97 C318.88,304.63 330.58,283.21 347.33,282.35 Z M351.18,384.1 C356.72,382.71 352.33,389.6 351.29,392.17 C347.77,398.31 349.15,386.13 351.18,384.1 Z M76.27,318.95 C77.93,318.89 79.54,320.2 79,321.98 C70.85,337.36 75.1,357.85 86.76,370.24 C95.36,376.43 108.28,382.4 117.91,374.86 C120.89,374.21 123.77,368.16 126.98,371.07 C117.48,386.06 92.51,385.83 82.95,371.08 C75.45,368.53 76.41,357.8 72.36,351.62 C71.13,340.56 72.37,329.35 76.27,318.95 Z M119.95,344.98 C124.34,344.51 129.27,347.98 129.39,352.57 C135.21,354.68 131.21,363.03 128.8,366.95 C122.07,365.74 130.58,355 125.8,351.18 C124.05,348.67 119.18,348.84 119.95,344.98 Z M92.44,296.26 C98.23,292.49 97.07,297.32 96.79,299.72 C92.04,303.26 87.02,306.72 83.96,311.95 C83.06,314.46 81.39,315.48 78.94,315.02 C79.83,306.75 89.51,303.56 92.44,296.26 Z M224.99,364.92 C229.6,365.18 230.08,371.29 232.95,374.06 C235.6,375.99 239.89,379.51 236.94,382.98 C234.52,381.42 232.51,378.53 228.94,380.03 C224.81,380.38 229.01,376.12 229.67,374.23 C227.16,371.72 224.16,368.86 224.99,364.92 Z M239.43,386.2 C244.35,385.63 244.79,393.93 244.97,397.17 C241.71,397.15 241.79,391.34 237.33,394.36 C228.15,398.9 220.56,406.54 210.59,409.46 C204.25,411.85 196.92,412.76 192.45,418.42 C172.07,423.93 157.09,439.79 139.89,450.87 C136.91,452.29 137.96,448.43 139.75,447.71 C157.01,428.58 180.47,418 202.3,405.35 C204.97,405.91 207.06,404.87 208.84,402.91 C218.25,399.45 227.37,394.96 236.23,390.21 C237.89,389.38 239.01,388.02 239.43,386.2 Z M234.35,410.43 C237.47,408.56 235.33,413.16 234.07,414.07 C213.76,424.93 190.96,431.32 173.9,447.87 C165.8,453.72 158.05,460.25 150.18,466.22 C150.45,459.22 158.41,457.05 161.37,451.35 C173.32,440.75 186.2,430.46 201.64,425.56 C205.14,420.02 211.81,420.14 216.86,416.81 C221.92,412.81 229.1,414.21 234.35,410.43 Z M133.23,457.37 C137.39,458.91 129.26,462.76 128.94,466.06 C117.21,476.17 108.61,488.99 99.05,501.04 C90.83,505.91 90.96,520.25 80.94,522.04 C84.39,510.08 95.28,501.5 102.41,491.41 C110.46,478.27 122,467.57 133.23,457.37 Z" id="Shape"></path>
            </g>
            <g id="White" transform="translate(80.000000, 457.000000)"></g>
        </g>
        <rect id="Rectangle-1" stroke="#000000" stroke-width="5" sketch:type="MSShapeGroup" x="30" y="30" width="460" height="660"></rect>
        <rect id="Rectangle-2" stroke="#000000" stroke-width="2" sketch:type="MSShapeGroup" x="20" y="20" width="480" height="680"></rect>
    </g>
</svg>